<svg xmlns="http://www.w3.org/2000/svg" width="3600" height="2400" viewBox="0 0 3600 2400" xmlns:c2pa="http://c2pa.org/manifest"><metadata><c2pa:manifest>AAAWgmp1bWIAAAAeanVtZGMycGEAEQAQgAAAqgA4m3EDYzJwYQAAABZcanVtYgAAAEdqdW1kYzJtYQARABCAAACqADibcQN1cm46YzJwYTplNTRlYjFmZS0yMGY5LTQwYjUtOTE2Yi03YmIzMDRlYzQyOTQAAAADl2p1bWIAAAApanVtZGMyYXMAEQAQgAAAqgA4m3EDYzJwYS5hc3NlcnRpb25zAAAAALxqdW1iAAAARGp1bWRjYm9yABEAEIAAAKoAOJtxE2MycGEuaW5ncmVkaWVudC52MwAAAAAYYzJzaCdFc/FfW8NKO8K0lUoiwP0AAABwY2JvcqNpZGM6Zm9ybWF0bWltYWdlL3N2Zyt4bWxqaW5zdGFuY2VJRHgseG1wOmlpZDo4ZTdkNjVmOC0yMzg5LTQ1MGQtODAxOS0xMDQ1NWRhODExMzNscmVsYXRpb25zaGlwaHBhcmVudE9mAAAB4mp1bWIAAABBanVtZGNib3IAEQAQgAAAqgA4m3ETYzJwYS5hY3Rpb25zLnYyAAAAABhjMnNohrcI97wqqR/TE8dmwRK5+AAAAZljYm9yomdhY3Rpb25zgqJmYWN0aW9ua2MycGEub3BlbmVkanBhcmFtZXRlcnOha2luZ3JlZGllbnRzgaJjdXJseC1zZWxmI2p1bWJmPWMycGEuYXNzZXJ0aW9ucy9jMnBhLmluZ3JlZGllbnQudjNkaGFzaFggX0moyE/p0b5qaZJ6osyNJCY9gddjHpMgukvDmXYKZDukZmFjdGlvbngdY29tLmFudGhyb3BpYy5jbGF1ZGUucHJvdmlkZWRqcGFyYW1ldGVyc6F4H2NvbS5hbnRocm9waWMub3JpZ2luLWNvbmZpZGVuY2VndW5rbm93bmtkZXNjcmlwdGlvbnhmQ2xhdWRlIHByb3ZpZGVkIHRoaXMgZmlsZSBhdCB0aGUgcmVxdWVzdCBvZiBhIHVzZXIgYW5kIG1heSBoYXZlIGNyZWF0ZWQgb3IgbW9kaWZpZWQgdGhlIGZpbGUgY29udGVudHMubXNvZnR3YXJlQWdlbnShZG5hbWVmQ2xhdWRlcmFsbEFjdGlvbnNJbmNsdWRlZPUAAADIanVtYgAAAEBqdW1kY2JvcgARABCAAACqADibcRNjMnBhLmhhc2guZGF0YQAAAAAYYzJzaHq6GH8R6t8nBY958UC9QlAAAACAY2JvcqVjYWxnZnNoYTI1NmNwYWRNAAAAAAAAAAAAAAAAAGRoYXNoWCASWsLVgP9WI1oIrpSYKbNCb42Td2jMNYw9/aNEbbY0JmRuYW1lbmp1bWJmIG1hbmlmZXN0amV4Y2x1c2lvbnOBomVzdGFydBiaZmxlbmd0aBkeBAAAAj5qdW1iAAAAJ2p1bWRjMmNsABEAEIAAAKoAOJtxA2MycGEuY2xhaW0udjIAAAACD2Nib3KlY2FsZ2ZzaGEyNTZpc2lnbmF0dXJleE1zZWxmI2p1bWJmPS9jMnBhL3VybjpjMnBhOmU1NGViMWZlLTIwZjktNDBiNS05MTZiLTdiYjMwNGVjNDI5NC9jMnBhLnNpZ25hdHVyZWppbnN0YW5jZUlEeCx4bXA6aWlkOmNlMDA5MjcwLWNkNDAtNDVjNi05N2IyLTUwMGIyNTBkNjFlOXJjcmVhdGVkX2Fzc2VydGlvbnODomN1cmx4LXNlbGYjanVtYmY9YzJwYS5hc3NlcnRpb25zL2MycGEuaW5ncmVkaWVudC52M2RoYXNoWCBfSajIT+nRvmppknqizI0kJj2B12MekyC6S8OZdgpkO6JjdXJseCpzZWxmI2p1bWJmPWMycGEuYXNzZXJ0aW9ucy9jMnBhLmFjdGlvbnMudjJkaGFzaFggpR3/XAvJfhzaM+W4cEauYlEEcvtgO443bkJYGeMS8oOiY3VybHgpc2VsZiNqdW1iZj1jMnBhLmFzc2VydGlvbnMvYzJwYS5oYXNoLmRhdGFkaGFzaFgghJmgyQUFcH0xron6TBzJJau98nRKvi1QuEwYk05DEBp0Y2xhaW1fZ2VuZXJhdG9yX2luZm+jZG5hbWVvQW50aHJvcGljIEZpbGVzZ3ZlcnNpb25lMS4wLjBrc3BlY1ZlcnNpb25lMi40LjAAABA4anVtYgAAAChqdW1kYzJjcwARABCAAACqADibcQNjMnBhLnNpZ25hdHVyZQAAABAIY2JvctKEWQISogEmGCFZAgowggIGMIIBjaADAgECAhRA5aAK7sI50L64g/oGQgU9Z1UTADAKBggqhkjOPQQDAzBJMRcwFQYDVQQKEw5BbnRocm9waWMsIFBCQzEuMCwGA1UEAxMlQW50aHJvcGljIENvbnRlbnQgQ3JlZGVudGlhbHMgUm9vdCBDQTAeFw0yNjA4MDcxODQzNTZaFw0yODA4MDYxOTQzNTZaMEQxFzAVBgNVBAoTDkFudGhyb3BpYywgUEJDMSkwJwYDVQQDEyBBbnRocm9waWMgQ2xhdWRlIENvbnRlbnQgU2lnbmluZzBZMBMGByqGSM49AgEGCCqGSM49AwEHA0IABJh6CmvLUBgFFNU0vUKlOVtE6djd17L5SuwX0LemFisBM3dkd/3cyjxFA3Qo5S46fX0/ihY0VZ7mfb9KF703t5OjWDBWMA4GA1UdDwEB/wQEAwIHgDAVBgNVHSUEDjAMBgorBgEEAYPoXgIBMAwGA1UdEwEB/wQCMAAwHwYDVR0jBBgwFoAUzlHiBIFOZFsj+OPEz5o+nMHXXMIwCgYIKoZIzj0EAwMDZwAwZAIwMXMdFJ4BetLLVY7ORuE9noqbbAZOZn/aArXyTwFAZfKrPzxF2vPoJNf1+UCdg1XGAjBwX1zd9WGqYkqmL5SFqw1QySjr1zJfpJM9+1rdDwSPLMOPOjKuiXjoU/pUUeG9RwmhY3BhZFkNngAAAAAAAAAAAAAAAAAAAAAAAAAAAAAAAAAAAAAAAAAAAAAAAAAAAAAAAAAAAAAAAAAAAAAAAAAAAAAAAAAAAAAAAAAAAAAAAAAAAAAAAAAAAAAAAAAAAAAAAAAAAAAAAAAAAAAAAAAAAAAAAAAAAAAAAAAAAAAAAAAAAAAAAAAAAAAAAAAAAAAAAAAAAAAAAAAAAAAAAAAAAAAAAAAAAAAAAAAAAAAAAAAAAAAAAAAAAAAAAAAAAAAAAAAAAAAAAAAAAAAAAAAAAAAAAAAAAAAAAAAAAAAAAAAAAAAAAAAAAAAAAAAAAAAAAAAAAAAAAAAAAAAAAAAAAAAAAAAAAAAAAAAAAAAAAAAAAAAAAAAAAAAAAAAAAAAAAAAAAAAAAAAAAAAAAAAAAAAAAAAAAAAAAAAAAAAAAAAAAAAAAAAAAAAAAAAAAAAAAAAAAAAAAAAAAAAAAAAAAAAAAAAAAAAAAAAAAAAAAAAAAAAAAAAAAAAAAAAAAAAAAAAAAAAAAAAAAAAAAAAAAAAAAAAAAAAAAAAAAAAAAAAAAAAAAAAAAAAAAAAAAAAAAAAAAAAAAAAAAAAAAAAAAAAAAAAAAAAAAAAAAAAAAAAAAAAAAAAAAAAAAAAAAAAAAAAAAAAAAAAAAAAAAAAAAAAAAAAAAAAAAAAAAAAAAAAAAAAAAAAAAAAAAAAAAAAAAAAAAAAAAAAAAAAAAAAAAAAAAAAAAAAAAAAAAAAAAAAAAAAAAAAAAAAAAAAAAAAAAAAAAAAAAAAAAAAAAAAAAAAAAAAAAAAAAAAAAAAAAAAAAAAAAAAAAAAAAAAAAAAAAAAAAAAAAAAAAAAAAAAAAAAAAAAAAAAAAAAAAAAAAAAAAAAAAAAAAAAAAAAAAAAAAAAAAAAAAAAAAAAAAAAAAAAAAAAAAAAAAAAAAAAAAAAAAAAAAAAAAAAAAAAAAAAAAAAAAAAAAAAAAAAAAAAAAAAAAAAAAAAAAAAAAAAAAAAAAAAAAAAAAAAAAAAAAAAAAAAAAAAAAAAAAAAAAAAAAAAAAAAAAAAAAAAAAAAAAAAAAAAAAAAAAAAAAAAAAAAAAAAAAAAAAAAAAAAAAAAAAAAAAAAAAAAAAAAAAAAAAAAAAAAAAAAAAAAAAAAAAAAAAAAAAAAAAAAAAAAAAAAAAAAAAAAAAAAAAAAAAAAAAAAAAAAAAAAAAAAAAAAAAAAAAAAAAAAAAAAAAAAAAAAAAAAAAAAAAAAAAAAAAAAAAAAAAAAAAAAAAAAAAAAAAAAAAAAAAAAAAAAAAAAAAAAAAAAAAAAAAAAAAAAAAAAAAAAAAAAAAAAAAAAAAAAAAAAAAAAAAAAAAAAAAAAAAAAAAAAAAAAAAAAAAAAAAAAAAAAAAAAAAAAAAAAAAAAAAAAAAAAAAAAAAAAAAAAAAAAAAAAAAAAAAAAAAAAAAAAAAAAAAAAAAAAAAAAAAAAAAAAAAAAAAAAAAAAAAAAAAAAAAAAAAAAAAAAAAAAAAAAAAAAAAAAAAAAAAAAAAAAAAAAAAAAAAAAAAAAAAAAAAAAAAAAAAAAAAAAAAAAAAAAAAAAAAAAAAAAAAAAAAAAAAAAAAAAAAAAAAAAAAAAAAAAAAAAAAAAAAAAAAAAAAAAAAAAAAAAAAAAAAAAAAAAAAAAAAAAAAAAAAAAAAAAAAAAAAAAAAAAAAAAAAAAAAAAAAAAAAAAAAAAAAAAAAAAAAAAAAAAAAAAAAAAAAAAAAAAAAAAAAAAAAAAAAAAAAAAAAAAAAAAAAAAAAAAAAAAAAAAAAAAAAAAAAAAAAAAAAAAAAAAAAAAAAAAAAAAAAAAAAAAAAAAAAAAAAAAAAAAAAAAAAAAAAAAAAAAAAAAAAAAAAAAAAAAAAAAAAAAAAAAAAAAAAAAAAAAAAAAAAAAAAAAAAAAAAAAAAAAAAAAAAAAAAAAAAAAAAAAAAAAAAAAAAAAAAAAAAAAAAAAAAAAAAAAAAAAAAAAAAAAAAAAAAAAAAAAAAAAAAAAAAAAAAAAAAAAAAAAAAAAAAAAAAAAAAAAAAAAAAAAAAAAAAAAAAAAAAAAAAAAAAAAAAAAAAAAAAAAAAAAAAAAAAAAAAAAAAAAAAAAAAAAAAAAAAAAAAAAAAAAAAAAAAAAAAAAAAAAAAAAAAAAAAAAAAAAAAAAAAAAAAAAAAAAAAAAAAAAAAAAAAAAAAAAAAAAAAAAAAAAAAAAAAAAAAAAAAAAAAAAAAAAAAAAAAAAAAAAAAAAAAAAAAAAAAAAAAAAAAAAAAAAAAAAAAAAAAAAAAAAAAAAAAAAAAAAAAAAAAAAAAAAAAAAAAAAAAAAAAAAAAAAAAAAAAAAAAAAAAAAAAAAAAAAAAAAAAAAAAAAAAAAAAAAAAAAAAAAAAAAAAAAAAAAAAAAAAAAAAAAAAAAAAAAAAAAAAAAAAAAAAAAAAAAAAAAAAAAAAAAAAAAAAAAAAAAAAAAAAAAAAAAAAAAAAAAAAAAAAAAAAAAAAAAAAAAAAAAAAAAAAAAAAAAAAAAAAAAAAAAAAAAAAAAAAAAAAAAAAAAAAAAAAAAAAAAAAAAAAAAAAAAAAAAAAAAAAAAAAAAAAAAAAAAAAAAAAAAAAAAAAAAAAAAAAAAAAAAAAAAAAAAAAAAAAAAAAAAAAAAAAAAAAAAAAAAAAAAAAAAAAAAAAAAAAAAAAAAAAAAAAAAAAAAAAAAAAAAAAAAAAAAAAAAAAAAAAAAAAAAAAAAAAAAAAAAAAAAAAAAAAAAAAAAAAAAAAAAAAAAAAAAAAAAAAAAAAAAAAAAAAAAAAAAAAAAAAAAAAAAAAAAAAAAAAAAAAAAAAAAAAAAAAAAAAAAAAAAAAAAAAAAAAAAAAAAAAAAAAAAAAAAAAAAAAAAAAAAAAAAAAAAAAAAAAAAAAAAAAAAAAAAAAAAAAAAAAAAAAAAAAAAAAAAAAAAAAAAAAAAAAAAAAAAAAAAAAAAAAAAAAAAAAAAAAAAAAAAAAAAAAAAAAAAAAAAAAAAAAAAAAAAAAAAAAAAAAAAAAAAAAAAAAAAAAAAAAAAAAAAAAAAAAAAAAAAAAAAAAAAAAAAAAAAAAAAAAAAAAAAAAAAAAAAAAAAAAAAAAAAAAAAAAAAAAAAAAAAAAAAAAAAAAAAAAAAAAAAAAAAAAAAAAAAAAAAAAAAAAAAAAAAAAAAAAAAAAAAAAAAAAAAAAAAAAAAAAAAAAAAAAAAAAAAAAAAAAAAAAAAAAAAAAAAAAAAAAAAAAAAAAAAAAAAAAAAAAAAAAAAAAAAAAAAAAAAAAAAAAAAAAAAAAAAAAAAAAAAAAAAAAAAAAAAAAAAAAAAAAAAAAAAAAAAAAAAAAAAAAAAAAAAAAAAAAAAAAAAAAAAAAAAAAAAAAAAAAAAAAAAAAAAAAAAAAAAAAAAAAAAAAAAAAAAAAAAAAAAAAAAAAAAAAAAAAAAAAAAAAAAAAAAAAAAAAAAAAAAAAAAAAAAAAAAAAAAAAAAAAAAAAAAAAAAAAAAAAAAAAAAAAAAAAAAAAAAAAAAAAAAAAAAAAAAAAAAAAAAAAAAAAAAAAAAAAAAAAAAAAAAAAAAAAAAAAAAAAAAAAAAAAAAAAAAAAAAAAAAAAAAAAAAAAAAAAAAAAAAAAAAAAAAAAAAAAAAAAAAAAAAAAAAAAAAAAAAAAAAAAAAAAAAAAAAAAAAAAAAAAAAAAAAAAAAAAAAAAAAAAAAAAAAAAAAAAAAAAAAAAAAAAAAAAAAAAAAAAAAAAAAAAAAAAAAAAAAAAAAAAAAAAAAAAAAAAAAAAAAAAAAAAAAAAAAAAAAAAAAAAAAAAAAAAAAAAAAAAAAAAAAAAAAAAAAAAAAAAAAAAAAAAAAAAAAAAAAAAAAAAAAAAAAAAAAAAAAAAAAAAAAAAAAAAAAAAAAAAAAAAAAAAAAAAAAAAAAAAAAAAAAAAAAAAAAAAAAAAAAAAAAAAAAAAAAAAAAAAAAAAAAAAAAAAAAAAAAAAAAAAAAAAAAAAAAAAAAAAAAAAAAAAAAAAAAAAAAAAAAAAAAAAAAAAAAAAAAAAAAAAAAAAAAAAAAAAAAAAAAAAAAAAAAAAAAAAAAAAAAAAAAAAAAAAAAAAAAAAAAAAAAAAAAAAAAAAAAAAAAAAAAAAAAAAAAAAAAAAAAAAAAAAAAAAAAAAAAAAAAAAAAAAAAAAAAAAAAAAAAAAAAAAAAAAAAAAAAAAAAAAAAAAAAAAAAAAAAAAAAAAAAAAAAAAAAAAAAAAAAAAAAAAAAAAAAAAAAAAAAAAAAAAAAAAAAAAAAAAAAAAAAAAAAAAAAAAAAAAAAAAAAAAAAAAAAAAAAAAAAAAAAAAAAAAAAAAAAAAAAAAAAAAAAAAAAAAAAAAAAAAAAAAAAAAAAAAAAAAAAAAAAAAAAAAAAAAAAAAAAAAAAAAAAAAAAAAAAAAAAAAAAAAAAAAAAAAAAAAAAAAAAAAAAAAAAAAAAAAAAAAAAAAAAAAAAAAAAAAAAAAAAAAAAAAAAAAAAAAAAAAAAAAAAAAAAAAAAAAAAAAAAAAAAAAAAAAAAAAAAAAAAAAAAAAAAAAAAAAAAAAAAAAAAAAAAAAAAAAAAAAAAAAAAAAAAAAAAAAAAAAAAAAAAAAAAAAAAAAAAAAAAAAAAAAAAAAAAAAAAAAAAAAPZYQMIdtVvOJ66L6qW6MxtOBCCcLWVVRJ6nJD2P3wf5AWN5ayBpToKqEgqU6SF3r+qn4Lf1aIgh5eB7btKWHazkiDw=</c2pa:manifest></metadata><g id="background"><rect width="3600" height="2400" fill="#efe8d8"/></g><g id="topo"><g id="roads"><line x1="120" y1="0" x2="110" y2="2400" stroke="#d6c9ad" stroke-width="6"/><line x1="252" y1="0" x2="244" y2="2400" stroke="#d6c9ad" stroke-width="6"/><line x1="384" y1="0" x2="369" y2="2400" stroke="#d6c9ad" stroke-width="6"/><line x1="516" y1="0" x2="515" y2="2400" stroke="#d6c9ad" stroke-width="6"/><line x1="648" y1="0" x2="646" y2="2400" stroke="#d6c9ad" stroke-width="6"/><line x1="780" y1="0" x2="791" y2="2400" stroke="#d6c9ad" stroke-width="6"/><line x1="912" y1="0" x2="913" y2="2400" stroke="#d6c9ad" stroke-width="6"/><line x1="1044" y1="0" x2="1048" y2="2400" stroke="#d6c9ad" stroke-width="6"/><line x1="1176" y1="0" x2="1176" y2="2400" stroke="#d6c9ad" stroke-width="6"/><line x1="1308" y1="0" x2="1313" y2="2400" stroke="#d6c9ad" stroke-width="6"/><line x1="1440" y1="0" x2="1439" y2="2400" stroke="#d6c9ad" stroke-width="6"/><line x1="1572" y1="0" x2="1565" y2="2400" stroke="#d6c9ad" stroke-width="6"/><line x1="1704" y1="0" x2="1720" y2="2400" stroke="#d6c9ad" stroke-width="6"/><line x1="1836" y1="0" x2="1852" y2="2400" stroke="#d6c9ad" stroke-width="6"/><line x1="1968" y1="0" x2="1979" y2="2400" stroke="#d6c9ad" stroke-width="6"/><line x1="2100" y1="0" x2="2107" y2="2400" stroke="#d6c9ad" stroke-width="6"/><line x1="2232" y1="0" x2="2226" y2="2400" stroke="#d6c9ad" stroke-width="6"/><line x1="2364" y1="0" x2="2355" y2="2400" stroke="#d6c9ad" stroke-width="6"/><line x1="2496" y1="0" x2="2489" y2="2400" stroke="#d6c9ad" stroke-width="6"/><line x1="2628" y1="0" x2="2614" y2="2400" stroke="#d6c9ad" stroke-width="6"/><line x1="2760" y1="0" x2="2769" y2="2400" stroke="#d6c9ad" stroke-width="6"/><line x1="2892" y1="0" x2="2889" y2="2400" stroke="#d6c9ad" stroke-width="6"/><line x1="3024" y1="0" x2="3035" y2="2400" stroke="#d6c9ad" stroke-width="6"/><line x1="3156" y1="0" x2="3152" y2="2400" stroke="#d6c9ad" stroke-width="6"/><line x1="3288" y1="0" x2="3303" y2="2400" stroke="#d6c9ad" stroke-width="6"/><line x1="3420" y1="0" x2="3431" y2="2400" stroke="#d6c9ad" stroke-width="6"/><line x1="3552" y1="0" x2="3536" y2="2400" stroke="#d6c9ad" stroke-width="6"/><line x1="0" y1="110" x2="3600" y2="102" stroke="#d6c9ad" stroke-width="6"/><line x1="0" y1="234" x2="3600" y2="245" stroke="#d6c9ad" stroke-width="6"/><line x1="0" y1="358" x2="3600" y2="357" stroke="#d6c9ad" stroke-width="6"/><line x1="0" y1="482" x2="3600" y2="495" stroke="#d6c9ad" stroke-width="6"/><line x1="0" y1="606" x2="3600" y2="603" stroke="#d6c9ad" stroke-width="6"/><line x1="0" y1="730" x2="3600" y2="718" stroke="#d6c9ad" stroke-width="6"/><line x1="0" y1="854" x2="3600" y2="858" stroke="#d6c9ad" stroke-width="6"/><line x1="0" y1="978" x2="3600" y2="986" stroke="#d6c9ad" stroke-width="6"/><line x1="0" y1="1102" x2="3600" y2="1096" stroke="#d6c9ad" stroke-width="6"/><line x1="0" y1="1226" x2="3600" y2="1214" stroke="#d6c9ad" stroke-width="6"/><line x1="0" y1="1350" x2="3600" y2="1345" stroke="#d6c9ad" stroke-width="6"/><line x1="0" y1="1474" x2="3600" y2="1487" stroke="#d6c9ad" stroke-width="6"/><line x1="0" y1="1598" x2="3600" y2="1605" stroke="#d6c9ad" stroke-width="6"/><line x1="0" y1="1722" x2="3600" y2="1711" stroke="#d6c9ad" stroke-width="6"/><line x1="0" y1="1846" x2="3600" y2="1839" stroke="#d6c9ad" stroke-width="6"/><line x1="0" y1="1970" x2="3600" y2="1959" stroke="#d6c9ad" stroke-width="6"/><line x1="0" y1="2094" x2="3600" y2="2082" stroke="#d6c9ad" stroke-width="6"/><line x1="0" y1="2218" x2="3600" y2="2226" stroke="#d6c9ad" stroke-width="6"/><line x1="0" y1="2342" x2="3600" y2="2333" stroke="#d6c9ad" stroke-width="6"/><line x1="430" y1="0" x2="460" y2="2400" stroke="#dccfb0" stroke-width="19"/><line x1="1190" y1="0" x2="1220" y2="2400" stroke="#dccfb0" stroke-width="19"/><line x1="1950" y1="0" x2="1980" y2="2400" stroke="#dccfb0" stroke-width="19"/><line x1="2710" y1="0" x2="2740" y2="2400" stroke="#dccfb0" stroke-width="19"/><line x1="3470" y1="0" x2="3500" y2="2400" stroke="#dccfb0" stroke-width="19"/><line x1="0" y1="360" x2="3600" y2="380" stroke="#dccfb0" stroke-width="19"/><line x1="0" y1="1050" x2="3600" y2="1070" stroke="#dccfb0" stroke-width="19"/><line x1="0" y1="1740" x2="3600" y2="1760" stroke="#dccfb0" stroke-width="19"/></g><g id="water"><path d="M560.0 220.0 C541.3 260.1 515.0 266.1 505.0 338.0 C495.0 409.9 500.3 371.9 530.5 431.5 C560.7 491.2 549.3 458.2 593.9 513.6 C638.4 568.9 618.7 538.5 661.6 594.3 C704.4 650.2 677.4 621.9 720.0 677.8 C762.5 733.8 731.0 706.9 786.7 758.9 C842.3 810.8 810.9 783.9 883.7 830.7 C956.5 877.4 930.4 848.9 1000.7 896.4 C1071.0 943.9 1054.6 912.4 1090.4 970.4 C1126.1 1028.5 1121.6 993.4 1105.8 1067.0 C1090.1 1140.7 1096.5 1102.3 1044.1 1187.1 C991.7 1271.9 1005.6 1231.2 951.8 1316.4 C898.0 1401.7 914.4 1360.2 885.8 1437.8 C857.2 1515.3 871.3 1474.6 867.6 1544.6 C863.9 1614.6 872.0 1575.7 875.0 1643.7 C878.0 1711.6 878.1 1675.1 876.5 1744.5 C874.9 1813.9 867.1 1779.8 870.3 1847.7 C873.5 1915.6 859.0 1883.5 886.0 1944.2 C913.0 2004.9 893.8 1974.2 949.6 2026.1 C1005.5 2078.0 984.1 2048.1 1050.3 2096.8 C1116.4 2145.6 1100.0 2114.1 1144.1 2169.6 C1188.2 2225.1 1167.8 2229.3 1180.0 2260.0" fill="none" stroke="#cfd8b8" stroke-width="430" stroke-linecap="round" stroke-linejoin="round" opacity=".85"/><path d="M560.0 220.0 C541.3 260.1 515.0 266.1 505.0 338.0 C495.0 409.9 500.3 371.9 530.5 431.5 C560.7 491.2 549.3 458.2 593.9 513.6 C638.4 568.9 618.7 538.5 661.6 594.3 C704.4 650.2 677.4 621.9 720.0 677.8 C762.5 733.8 731.0 706.9 786.7 758.9 C842.3 810.8 810.9 783.9 883.7 830.7 C956.5 877.4 930.4 848.9 1000.7 896.4 C1071.0 943.9 1054.6 912.4 1090.4 970.4 C1126.1 1028.5 1121.6 993.4 1105.8 1067.0 C1090.1 1140.7 1096.5 1102.3 1044.1 1187.1 C991.7 1271.9 1005.6 1231.2 951.8 1316.4 C898.0 1401.7 914.4 1360.2 885.8 1437.8 C857.2 1515.3 871.3 1474.6 867.6 1544.6 C863.9 1614.6 872.0 1575.7 875.0 1643.7 C878.0 1711.6 878.1 1675.1 876.5 1744.5 C874.9 1813.9 867.1 1779.8 870.3 1847.7 C873.5 1915.6 859.0 1883.5 886.0 1944.2 C913.0 2004.9 893.8 1974.2 949.6 2026.1 C1005.5 2078.0 984.1 2048.1 1050.3 2096.8 C1116.4 2145.6 1100.0 2114.1 1144.1 2169.6 C1188.2 2225.1 1167.8 2229.3 1180.0 2260.0" fill="none" stroke="#cfd8b8" stroke-width="300" stroke-linecap="round" stroke-linejoin="round" opacity=".85"/><path d="M560.0 220.0 C541.3 260.1 515.0 266.1 505.0 338.0 C495.0 409.9 500.3 371.9 530.5 431.5 C560.7 491.2 549.3 458.2 593.9 513.6 C638.4 568.9 618.7 538.5 661.6 594.3 C704.4 650.2 677.4 621.9 720.0 677.8 C762.5 733.8 731.0 706.9 786.7 758.9 C842.3 810.8 810.9 783.9 883.7 830.7 C956.5 877.4 930.4 848.9 1000.7 896.4 C1071.0 943.9 1054.6 912.4 1090.4 970.4 C1126.1 1028.5 1121.6 993.4 1105.8 1067.0 C1090.1 1140.7 1096.5 1102.3 1044.1 1187.1 C991.7 1271.9 1005.6 1231.2 951.8 1316.4 C898.0 1401.7 914.4 1360.2 885.8 1437.8 C857.2 1515.3 871.3 1474.6 867.6 1544.6 C863.9 1614.6 872.0 1575.7 875.0 1643.7 C878.0 1711.6 878.1 1675.1 876.5 1744.5 C874.9 1813.9 867.1 1779.8 870.3 1847.7 C873.5 1915.6 859.0 1883.5 886.0 1944.2 C913.0 2004.9 893.8 1974.2 949.6 2026.1 C1005.5 2078.0 984.1 2048.1 1050.3 2096.8 C1116.4 2145.6 1100.0 2114.1 1144.1 2169.6 C1188.2 2225.1 1167.8 2229.3 1180.0 2260.0" fill="none" stroke="#9fc4d0" stroke-width="62" stroke-linecap="round" stroke-linejoin="round"/><path d="M560.0 220.0 C541.3 260.1 515.0 266.1 505.0 338.0 C495.0 409.9 500.3 371.9 530.5 431.5 C560.7 491.2 549.3 458.2 593.9 513.6 C638.4 568.9 618.7 538.5 661.6 594.3 C704.4 650.2 677.4 621.9 720.0 677.8 C762.5 733.8 731.0 706.9 786.7 758.9 C842.3 810.8 810.9 783.9 883.7 830.7 C956.5 877.4 930.4 848.9 1000.7 896.4 C1071.0 943.9 1054.6 912.4 1090.4 970.4 C1126.1 1028.5 1121.6 993.4 1105.8 1067.0 C1090.1 1140.7 1096.5 1102.3 1044.1 1187.1 C991.7 1271.9 1005.6 1231.2 951.8 1316.4 C898.0 1401.7 914.4 1360.2 885.8 1437.8 C857.2 1515.3 871.3 1474.6 867.6 1544.6 C863.9 1614.6 872.0 1575.7 875.0 1643.7 C878.0 1711.6 878.1 1675.1 876.5 1744.5 C874.9 1813.9 867.1 1779.8 870.3 1847.7 C873.5 1915.6 859.0 1883.5 886.0 1944.2 C913.0 2004.9 893.8 1974.2 949.6 2026.1 C1005.5 2078.0 984.1 2048.1 1050.3 2096.8 C1116.4 2145.6 1100.0 2114.1 1144.1 2169.6 C1188.2 2225.1 1167.8 2229.3 1180.0 2260.0" fill="none" stroke="#5c8595" stroke-width="5" stroke-linecap="round" opacity=".45"/><ellipse cx="1979" cy="1964" rx="181" ry="141" fill="#cfd8b8" opacity=".8"/><ellipse cx="2062" cy="632" rx="187" ry="153" fill="#cfd8b8" opacity=".8"/><ellipse cx="2679" cy="469" rx="159" ry="99" fill="#cfd8b8" opacity=".8"/><line x1="0" y1="980" x2="3600" y2="1040" stroke="#b9a578" stroke-width="11" stroke-dasharray="34 22" opacity=".7"/></g><g id="labels"><text x="1450" y="520" font-family="Georgia,serif" font-size="62" fill="#7a6a4c" opacity=".55">Etobicoke</text><text x="700" y="1900" font-family="Georgia,serif" font-size="44" fill="#7a6a4c" opacity=".55">Marie Curtis</text><text x="2400" y="1400" font-family="Georgia,serif" font-size="44" fill="#7a6a4c" opacity=".55">Alderwood</text></g></g><path id="route" d="M482.1 183.7 C460.9 232.1 429.4 228.7 419.8 326.1 C410.2 423.6 417.4 388.3 453.8 470.4 C490.2 552.5 479.4 507.6 526.9 567.5 C574.3 627.5 551.0 591.5 593.3 646.7 C635.7 701.9 605.7 670.4 651.5 729.9 C697.3 789.4 633.2 812.1 728.0 821.7 C822.7 831.4 821.1 757.2 930.2 758.3 C1039.3 759.5 969.5 768.4 1048.9 825.2 C1128.2 881.9 1115.6 837.0 1163.6 925.3 C1211.6 1013.7 1255.4 1011.4 1189.9 1085.0 C1124.4 1158.6 1076.6 1078.8 970.9 1141.9 C865.2 1205.0 935.4 1180.1 879.0 1270.5 C822.7 1361.0 838.2 1316.4 805.1 1408.0 C772.1 1499.7 787.2 1458.7 781.8 1540.1 C776.3 1621.5 786.1 1578.6 789.1 1647.5 C792.0 1716.3 792.1 1673.1 790.5 1742.5 C788.9 1812.0 725.2 1795.1 784.4 1851.8 C843.6 1908.5 888.5 1871.4 964.6 1909.2 C1040.7 1947.1 961.7 1922.9 1008.2 1963.1 C1054.7 2003.4 1032.2 1975.6 1101.3 2027.6 C1170.4 2079.6 1157.5 2047.9 1211.5 2116.1 C1265.4 2184.3 1243.5 2190.1 1259.9 2228.3" fill="none" stroke="#4ecf4e" stroke-width="10" stroke-linecap="round" opacity=".25"/><path id="wishful_route_1" d="M465.8 220.9 C781.7 255.7 927.2 510.6 796.4 800.3" fill="none" stroke="#e84fff" stroke-width="15" stroke-linecap="round"/><path id="wishful_route_2" d="M1187.3 1069.0 Q1113.5 863.3 1033.5 674.2" fill="none" stroke="#e84fff" stroke-width="15" stroke-linecap="round"/><path id="wishful_route_3" d="M1022.2 1128.6 C1108.3 1380.1 1003.8 1696.1 784.7 1846.8" fill="none" stroke="#e84fff" stroke-width="15" stroke-linecap="round"/><g id="wishful"><circle cx="546.8" cy="591.3" r="11" fill="#fff" stroke="#e84fff" stroke-width="6"/><circle cx="1187.3" cy="1069.0" r="11" fill="#fff" stroke="#e84fff" stroke-width="6"/><circle cx="785.0" cy="1521.6" r="11" fill="#fff" stroke="#e84fff" stroke-width="6"/></g><g id="crossings"><circle id="link-1" cx="361.1" cy="130.8" r="8" fill="#fff" stroke="#3b6ea8" stroke-width="5"/><line x1="482.1" y1="183.7" x2="361.1" y2="130.8" stroke="#3b6ea8" stroke-width="4" opacity=".45"/><circle id="link-2" cx="1381.1" cy="2175.9" r="8" fill="#fff" stroke="#3b6ea8" stroke-width="5"/><line x1="1259.9" y1="2228.3" x2="1381.1" y2="2175.9" stroke="#3b6ea8" stroke-width="4" opacity=".45"/></g><g id="heights"><circle id="h-140" cx="437.6" cy="285.4" r="4" fill="#6f6a5e" opacity=".5"/><circle id="h-137" cx="434.4" cy="388.0" r="4" fill="#6f6a5e" opacity=".5"/><circle id="h-135" cx="464.2" cy="484.3" r="4" fill="#6f6a5e" opacity=".5"/><circle id="h-132" cx="516.4" cy="553.6" r="4" fill="#6f6a5e" opacity=".5"/><circle id="h-130" cx="564.9" cy="612.7" r="4" fill="#6f6a5e" opacity=".5"/><circle id="h-128" cx="610.0" cy="670.4" r="4" fill="#6f6a5e" opacity=".5"/><circle id="h-125" cx="651.5" cy="729.9" r="4" fill="#6f6a5e" opacity=".5"/><circle id="h-123" cx="706.1" cy="795.5" r="4" fill="#6f6a5e" opacity=".5"/><circle id="h-120" cx="814.6" cy="794.6" r="4" fill="#6f6a5e" opacity=".5"/><circle id="h-113" cx="1031.9" cy="815.6" r="4" fill="#6f6a5e" opacity=".5"/><circle id="h-109" cx="1114.4" cy="882.4" r="4" fill="#6f6a5e" opacity=".5"/><circle id="h-105" cx="1171.1" cy="970.9" r="4" fill="#6f6a5e" opacity=".5"/><circle id="h-98" cx="1033.5" cy="1125.6" r="4" fill="#6f6a5e" opacity=".5"/><circle id="h-95" cx="931.5" cy="1197.0" r="4" fill="#6f6a5e" opacity=".5"/><circle id="h-92" cx="868.5" cy="1290.2" r="4" fill="#6f6a5e" opacity=".5"/><circle id="h-91" cx="815.7" cy="1388.4" r="4" fill="#6f6a5e" opacity=".5"/><circle id="h-90" cx="791.8" cy="1483.5" r="4" fill="#6f6a5e" opacity=".5"/><circle id="h-88" cx="783.8" cy="1570.8" r="4" fill="#6f6a5e" opacity=".5"/><circle id="h-86" cx="789.1" cy="1647.5" r="4" fill="#6f6a5e" opacity=".5"/><circle id="h-83" cx="787.9" cy="1789.3" r="4" fill="#6f6a5e" opacity=".5"/><circle id="h-82" cx="810.1" cy="1860.0" r="4" fill="#6f6a5e" opacity=".5"/><circle id="h-81" cx="938.9" cy="1901.0" r="4" fill="#6f6a5e" opacity=".5"/><circle id="h-80" cx="989.5" cy="1940.0" r="4" fill="#6f6a5e" opacity=".5"/><circle id="h-78" cx="1101.3" cy="2027.6" r="4" fill="#6f6a5e" opacity=".5"/><circle id="h-77" cx="1180.0" cy="2090.8" r="4" fill="#6f6a5e" opacity=".5"/><circle id="h-77_1" cx="1232.2" cy="2164.2" r="4" fill="#6f6a5e" opacity=".5"/></g><g id="waypoints"><circle id="wp-1" cx="482.1" cy="183.7" r="9" fill="#fff" stroke="#4ecf4e" stroke-width="5"/><circle id="wp-2" cx="798.6" cy="415.0" r="9" fill="#fff" stroke="#e84fff" stroke-width="5"/><circle id="wp-3" cx="934.9" cy="761.0" r="9" fill="#fff" stroke="#4ecf4e" stroke-width="5"/><circle id="wp-4" cx="1104.1" cy="837.2" r="9" fill="#fff" stroke="#e84fff" stroke-width="5"/><circle id="wp-5" cx="890.1" cy="1255.1" r="9" fill="#fff" stroke="#4ecf4e" stroke-width="5"/><circle id="wp-6" cx="1017.9" cy="1525.5" r="9" fill="#fff" stroke="#e84fff" stroke-width="5"/><circle id="wp-7" cx="790.3" cy="1727.3" r="9" fill="#fff" stroke="#4ecf4e" stroke-width="5"/><circle id="wp-8" cx="1041.7" cy="1986.4" r="9" fill="#fff" stroke="#4ecf4e" stroke-width="5"/><circle id="wp-9" cx="1259.9" cy="2228.3" r="9" fill="#fff" stroke="#4ecf4e" stroke-width="5"/></g><circle id="link-3" cx="1190.7" cy="2165.4" r="8" fill="#fff" stroke="#8c3aba" stroke-width="5"/></svg>