<svg xmlns="http://www.w3.org/2000/svg" width="3600" height="2400" viewBox="0 0 3600 2400"><g id="background"><rect width="3600" height="2400" fill="#efe8d8"/></g><g id="topo"><g id="roads"><line x1="120" y1="0" x2="118" y2="2400" stroke="#d6c9ad" stroke-width="6"/><line x1="252" y1="0" x2="249" y2="2400" stroke="#d6c9ad" stroke-width="6"/><line x1="384" y1="0" x2="400" y2="2400" stroke="#d6c9ad" stroke-width="6"/><line x1="516" y1="0" x2="503" y2="2400" stroke="#d6c9ad" stroke-width="6"/><line x1="648" y1="0" x2="633" y2="2400" stroke="#d6c9ad" stroke-width="6"/><line x1="780" y1="0" x2="794" y2="2400" stroke="#d6c9ad" stroke-width="6"/><line x1="912" y1="0" x2="909" y2="2400" stroke="#d6c9ad" stroke-width="6"/><line x1="1044" y1="0" x2="1034" y2="2400" stroke="#d6c9ad" stroke-width="6"/><line x1="1176" y1="0" x2="1171" y2="2400" stroke="#d6c9ad" stroke-width="6"/><line x1="1308" y1="0" x2="1304" y2="2400" stroke="#d6c9ad" stroke-width="6"/><line x1="1440" y1="0" x2="1455" y2="2400" stroke="#d6c9ad" stroke-width="6"/><line x1="1572" y1="0" x2="1563" y2="2400" stroke="#d6c9ad" stroke-width="6"/><line x1="1704" y1="0" x2="1695" y2="2400" stroke="#d6c9ad" stroke-width="6"/><line x1="1836" y1="0" x2="1839" y2="2400" stroke="#d6c9ad" stroke-width="6"/><line x1="1968" y1="0" x2="1970" y2="2400" stroke="#d6c9ad" stroke-width="6"/><line x1="2100" y1="0" x2="2115" y2="2400" stroke="#d6c9ad" stroke-width="6"/><line x1="2232" y1="0" x2="2243" y2="2400" stroke="#d6c9ad" stroke-width="6"/><line x1="2364" y1="0" x2="2359" y2="2400" stroke="#d6c9ad" stroke-width="6"/><line x1="2496" y1="0" x2="2487" y2="2400" stroke="#d6c9ad" stroke-width="6"/><line x1="2628" y1="0" x2="2639" y2="2400" stroke="#d6c9ad" stroke-width="6"/><line x1="2760" y1="0" x2="2776" y2="2400" stroke="#d6c9ad" stroke-width="6"/><line x1="2892" y1="0" x2="2877" y2="2400" stroke="#d6c9ad" stroke-width="6"/><line x1="3024" y1="0" x2="3032" y2="2400" stroke="#d6c9ad" stroke-width="6"/><line x1="3156" y1="0" x2="3168" y2="2400" stroke="#d6c9ad" stroke-width="6"/><line x1="3288" y1="0" x2="3293" y2="2400" stroke="#d6c9ad" stroke-width="6"/><line x1="3420" y1="0" x2="3411" y2="2400" stroke="#d6c9ad" stroke-width="6"/><line x1="3552" y1="0" x2="3561" y2="2400" stroke="#d6c9ad" stroke-width="6"/><line x1="0" y1="110" x2="3600" y2="116" stroke="#d6c9ad" stroke-width="6"/><line x1="0" y1="234" x2="3600" y2="225" stroke="#d6c9ad" stroke-width="6"/><line x1="0" y1="358" x2="3600" y2="362" stroke="#d6c9ad" stroke-width="6"/><line x1="0" y1="482" x2="3600" y2="474" stroke="#d6c9ad" stroke-width="6"/><line x1="0" y1="606" x2="3600" y2="593" stroke="#d6c9ad" stroke-width="6"/><line x1="0" y1="730" x2="3600" y2="725" stroke="#d6c9ad" stroke-width="6"/><line x1="0" y1="854" x2="3600" y2="849" stroke="#d6c9ad" stroke-width="6"/><line x1="0" y1="978" x2="3600" y2="975" stroke="#d6c9ad" stroke-width="6"/><line x1="0" y1="1102" x2="3600" y2="1106" stroke="#d6c9ad" stroke-width="6"/><line x1="0" y1="1226" x2="3600" y2="1235" stroke="#d6c9ad" stroke-width="6"/><line x1="0" y1="1350" x2="3600" y2="1363" stroke="#d6c9ad" stroke-width="6"/><line x1="0" y1="1474" x2="3600" y2="1487" stroke="#d6c9ad" stroke-width="6"/><line x1="0" y1="1598" x2="3600" y2="1612" stroke="#d6c9ad" stroke-width="6"/><line x1="0" y1="1722" x2="3600" y2="1730" stroke="#d6c9ad" stroke-width="6"/><line x1="0" y1="1846" x2="3600" y2="1841" stroke="#d6c9ad" stroke-width="6"/><line x1="0" y1="1970" x2="3600" y2="1961" stroke="#d6c9ad" stroke-width="6"/><line x1="0" y1="2094" x2="3600" y2="2097" stroke="#d6c9ad" stroke-width="6"/><line x1="0" y1="2218" x2="3600" y2="2219" stroke="#d6c9ad" stroke-width="6"/><line x1="0" y1="2342" x2="3600" y2="2347" stroke="#d6c9ad" stroke-width="6"/><line x1="430" y1="0" x2="460" y2="2400" stroke="#dccfb0" stroke-width="19"/><line x1="1190" y1="0" x2="1220" y2="2400" stroke="#dccfb0" stroke-width="19"/><line x1="1950" y1="0" x2="1980" y2="2400" stroke="#dccfb0" stroke-width="19"/><line x1="2710" y1="0" x2="2740" y2="2400" stroke="#dccfb0" stroke-width="19"/><line x1="3470" y1="0" x2="3500" y2="2400" stroke="#dccfb0" stroke-width="19"/><line x1="0" y1="360" x2="3600" y2="380" stroke="#dccfb0" stroke-width="19"/><line x1="0" y1="1050" x2="3600" y2="1070" stroke="#dccfb0" stroke-width="19"/><line x1="0" y1="1740" x2="3600" y2="1760" stroke="#dccfb0" stroke-width="19"/></g><g id="water"><path d="M2500.0 2280.0 C2501.0 2242.5 2496.9 2246.2 2502.9 2169.6 C2508.9 2093.0 2515.5 2129.8 2517.7 2054.6 C2520.0 1979.4 2523.3 2017.5 2509.5 1948.5 C2495.7 1879.4 2500.3 1917.0 2477.2 1851.4 C2454.2 1785.9 2463.7 1821.6 2441.6 1755.7 C2419.5 1689.8 2437.0 1722.5 2412.2 1657.6 C2387.4 1592.7 2413.8 1622.0 2368.8 1564.8 C2323.7 1507.7 2357.6 1534.1 2279.7 1489.5 C2201.8 1444.8 2239.5 1469.8 2139.6 1433.5 C2039.8 1397.2 2076.3 1422.7 1986.0 1382.7 C1895.8 1342.8 1926.4 1370.5 1874.2 1316.0 C1822.1 1261.6 1843.5 1292.7 1832.6 1222.5 C1821.8 1152.3 1833.1 1187.4 1842.3 1109.5 C1851.5 1031.7 1854.2 1070.1 1859.7 993.6 C1865.2 917.2 1862.1 957.7 1858.6 884.7 C1855.1 811.7 1849.9 853.1 1849.3 779.0 C1848.8 704.8 1844.6 745.8 1857.0 666.7 C1869.5 587.6 1868.7 627.3 1885.9 546.4 C1903.0 465.6 1907.2 503.3 1907.5 428.9 C1907.7 354.5 1918.2 389.8 1886.6 327.5 C1855.0 265.2 1878.0 295.8 1814.6 245.7 C1751.1 195.5 1739.0 202.3 1700.0 180.0" fill="none" stroke="#cfd8b8" stroke-width="430" stroke-linecap="round" stroke-linejoin="round" opacity=".85"/><path d="M2500.0 2280.0 C2501.0 2242.5 2496.9 2246.2 2502.9 2169.6 C2508.9 2093.0 2515.5 2129.8 2517.7 2054.6 C2520.0 1979.4 2523.3 2017.5 2509.5 1948.5 C2495.7 1879.4 2500.3 1917.0 2477.2 1851.4 C2454.2 1785.9 2463.7 1821.6 2441.6 1755.7 C2419.5 1689.8 2437.0 1722.5 2412.2 1657.6 C2387.4 1592.7 2413.8 1622.0 2368.8 1564.8 C2323.7 1507.7 2357.6 1534.1 2279.7 1489.5 C2201.8 1444.8 2239.5 1469.8 2139.6 1433.5 C2039.8 1397.2 2076.3 1422.7 1986.0 1382.7 C1895.8 1342.8 1926.4 1370.5 1874.2 1316.0 C1822.1 1261.6 1843.5 1292.7 1832.6 1222.5 C1821.8 1152.3 1833.1 1187.4 1842.3 1109.5 C1851.5 1031.7 1854.2 1070.1 1859.7 993.6 C1865.2 917.2 1862.1 957.7 1858.6 884.7 C1855.1 811.7 1849.9 853.1 1849.3 779.0 C1848.8 704.8 1844.6 745.8 1857.0 666.7 C1869.5 587.6 1868.7 627.3 1885.9 546.4 C1903.0 465.6 1907.2 503.3 1907.5 428.9 C1907.7 354.5 1918.2 389.8 1886.6 327.5 C1855.0 265.2 1878.0 295.8 1814.6 245.7 C1751.1 195.5 1739.0 202.3 1700.0 180.0" fill="none" stroke="#cfd8b8" stroke-width="300" stroke-linecap="round" stroke-linejoin="round" opacity=".85"/><path d="M2500.0 2280.0 C2501.0 2242.5 2496.9 2246.2 2502.9 2169.6 C2508.9 2093.0 2515.5 2129.8 2517.7 2054.6 C2520.0 1979.4 2523.3 2017.5 2509.5 1948.5 C2495.7 1879.4 2500.3 1917.0 2477.2 1851.4 C2454.2 1785.9 2463.7 1821.6 2441.6 1755.7 C2419.5 1689.8 2437.0 1722.5 2412.2 1657.6 C2387.4 1592.7 2413.8 1622.0 2368.8 1564.8 C2323.7 1507.7 2357.6 1534.1 2279.7 1489.5 C2201.8 1444.8 2239.5 1469.8 2139.6 1433.5 C2039.8 1397.2 2076.3 1422.7 1986.0 1382.7 C1895.8 1342.8 1926.4 1370.5 1874.2 1316.0 C1822.1 1261.6 1843.5 1292.7 1832.6 1222.5 C1821.8 1152.3 1833.1 1187.4 1842.3 1109.5 C1851.5 1031.7 1854.2 1070.1 1859.7 993.6 C1865.2 917.2 1862.1 957.7 1858.6 884.7 C1855.1 811.7 1849.9 853.1 1849.3 779.0 C1848.8 704.8 1844.6 745.8 1857.0 666.7 C1869.5 587.6 1868.7 627.3 1885.9 546.4 C1903.0 465.6 1907.2 503.3 1907.5 428.9 C1907.7 354.5 1918.2 389.8 1886.6 327.5 C1855.0 265.2 1878.0 295.8 1814.6 245.7 C1751.1 195.5 1739.0 202.3 1700.0 180.0" fill="none" stroke="#9fc4d0" stroke-width="62" stroke-linecap="round" stroke-linejoin="round"/><path d="M2500.0 2280.0 C2501.0 2242.5 2496.9 2246.2 2502.9 2169.6 C2508.9 2093.0 2515.5 2129.8 2517.7 2054.6 C2520.0 1979.4 2523.3 2017.5 2509.5 1948.5 C2495.7 1879.4 2500.3 1917.0 2477.2 1851.4 C2454.2 1785.9 2463.7 1821.6 2441.6 1755.7 C2419.5 1689.8 2437.0 1722.5 2412.2 1657.6 C2387.4 1592.7 2413.8 1622.0 2368.8 1564.8 C2323.7 1507.7 2357.6 1534.1 2279.7 1489.5 C2201.8 1444.8 2239.5 1469.8 2139.6 1433.5 C2039.8 1397.2 2076.3 1422.7 1986.0 1382.7 C1895.8 1342.8 1926.4 1370.5 1874.2 1316.0 C1822.1 1261.6 1843.5 1292.7 1832.6 1222.5 C1821.8 1152.3 1833.1 1187.4 1842.3 1109.5 C1851.5 1031.7 1854.2 1070.1 1859.7 993.6 C1865.2 917.2 1862.1 957.7 1858.6 884.7 C1855.1 811.7 1849.9 853.1 1849.3 779.0 C1848.8 704.8 1844.6 745.8 1857.0 666.7 C1869.5 587.6 1868.7 627.3 1885.9 546.4 C1903.0 465.6 1907.2 503.3 1907.5 428.9 C1907.7 354.5 1918.2 389.8 1886.6 327.5 C1855.0 265.2 1878.0 295.8 1814.6 245.7 C1751.1 195.5 1739.0 202.3 1700.0 180.0" fill="none" stroke="#5c8595" stroke-width="5" stroke-linecap="round" opacity=".45"/><ellipse cx="637" cy="1007" rx="209" ry="104" fill="#cfd8b8" opacity=".8"/><ellipse cx="637" cy="717" rx="218" ry="105" fill="#cfd8b8" opacity=".8"/><ellipse cx="2522" cy="1492" rx="138" ry="144" fill="#cfd8b8" opacity=".8"/><line x1="0" y1="1250" x2="3600" y2="1310" stroke="#b9a578" stroke-width="11" stroke-dasharray="34 22" opacity=".7"/></g><g id="labels"><text x="2900" y="900" font-family="Georgia,serif" font-size="58" fill="#7a6a4c" opacity=".55">Weston</text><text x="1500" y="2050" font-family="Georgia,serif" font-size="48" fill="#7a6a4c" opacity=".55">Humber Bay</text></g></g><path id="route" d="M2588.0 2282.3 C2588.9 2246.3 2584.6 2253.0 2590.6 2176.5 C2596.6 2100.0 2603.9 2140.6 2605.7 2057.3 C2607.5 1973.9 2611.3 2011.2 2595.8 1931.3 C2580.4 1851.3 2584.3 1891.4 2560.2 1822.2 C2536.2 1753.0 2547.4 1794.3 2525.1 1727.7 C2502.7 1661.1 2571.1 1663.1 2494.4 1626.2 C2417.8 1589.4 2387.5 1639.8 2299.7 1619.3 C2211.8 1598.8 2300.6 1600.9 2236.0 1565.8 C2171.3 1530.8 2206.7 1551.1 2109.6 1516.2 C2012.5 1481.3 2008.8 1552.0 1950.4 1463.2 C1892.0 1374.4 1948.2 1341.5 1937.8 1255.2 C1927.3 1168.8 1922.3 1255.1 1919.6 1209.1 C1916.9 1163.1 1920.3 1191.0 1929.7 1119.9 C1939.2 1048.8 1941.8 1081.4 1947.5 1000.0 C1953.2 918.6 1949.9 955.8 1946.5 880.5 C1943.1 805.1 1938.2 846.4 1937.3 778.3 C1936.5 710.3 1990.7 765.4 1944.0 680.4 C1897.2 595.3 1842.1 613.8 1799.8 528.2 C1757.4 442.6 1816.6 483.3 1819.5 428.6 C1822.3 373.9 1828.3 406.1 1808.1 367.3 C1787.9 328.6 1811.6 352.4 1760.0 314.7 C1708.4 277.0 1691.5 276.2 1656.2 256.4" fill="none" stroke="#c0392b" stroke-width="10" stroke-linecap="round" opacity=".25"/><g id="wishful"><path d="M1946.9 924.7 Q2109.7 792.0 1936.8 672.8" fill="none" stroke="#8e5bd0" stroke-width="15" stroke-linecap="round" opacity=".9"/><circle cx="1946.9" cy="924.7" r="11" fill="#fff" stroke="#8e5bd0" stroke-width="6"/><circle cx="1936.8" cy="672.8" r="11" fill="#fff" stroke="#8e5bd0" stroke-width="6"/></g><g id="waypoints"><circle id="wp-1" cx="2588.0" cy="2282.3" r="9" fill="#fff" stroke="#c0392b" stroke-width="5"/><circle id="wp-2" cx="2546.2" cy="1784.4" r="9" fill="#fff" stroke="#c0392b" stroke-width="5"/><circle id="wp-3" cx="2190.5" cy="1548.0" r="9" fill="#fff" stroke="#c0392b" stroke-width="5"/><circle id="wp-4" cx="1927.3" cy="1141.3" r="9" fill="#fff" stroke="#c0392b" stroke-width="5"/><circle id="wp-5" cx="1938.8" cy="794.7" r="9" fill="#fff" stroke="#c0392b" stroke-width="5"/><circle id="wp-6" cx="1815.4" cy="406.5" r="9" fill="#fff" stroke="#c0392b" stroke-width="5"/><circle id="wp-7" cx="1656.2" cy="256.4" r="9" fill="#fff" stroke="#c0392b" stroke-width="5"/></g></svg>