<svg xmlns="http://www.w3.org/2000/svg" width="3600" height="2400" viewBox="0 0 3600 2400" xmlns:c2pa="http://c2pa.org/manifest"><metadata><c2pa:manifest>AAAWgmp1bWIAAAAeanVtZGMycGEAEQAQgAAAqgA4m3EDYzJwYQAAABZcanVtYgAAAEdqdW1kYzJtYQARABCAAACqADibcQN1cm46YzJwYTozM2JjZjc5YS1hY2E3LTQzMjYtOWViNS1iMGE4MGU5MjY5NzgAAAADl2p1bWIAAAApanVtZGMyYXMAEQAQgAAAqgA4m3EDYzJwYS5hc3NlcnRpb25zAAAAALxqdW1iAAAARGp1bWRjYm9yABEAEIAAAKoAOJtxE2MycGEuaW5ncmVkaWVudC52MwAAAAAYYzJzaCHCTjsvf1uuykrjWwpl14wAAABwY2JvcqNpZGM6Zm9ybWF0bWltYWdlL3N2Zyt4bWxqaW5zdGFuY2VJRHgseG1wOmlpZDozNzM5MjJlOC1kNDk5LTQ5ZTctYmI4MC0xYjk3ZTExZGRhNzVscmVsYXRpb25zaGlwaHBhcmVudE9mAAAB4mp1bWIAAABBanVtZGNib3IAEQAQgAAAqgA4m3ETYzJwYS5hY3Rpb25zLnYyAAAAABhjMnNoSlPQyJHHFoRoQoAxyt0a2AAAAZljYm9yomdhY3Rpb25zgqJmYWN0aW9ua2MycGEub3BlbmVkanBhcmFtZXRlcnOha2luZ3JlZGllbnRzgaJjdXJseC1zZWxmI2p1bWJmPWMycGEuYXNzZXJ0aW9ucy9jMnBhLmluZ3JlZGllbnQudjNkaGFzaFgg39XV0uQ3ou76WSsuBtyXPCCzJ1zr1ZsmQcUD3LqnAzqkZmFjdGlvbngdY29tLmFudGhyb3BpYy5jbGF1ZGUucHJvdmlkZWRqcGFyYW1ldGVyc6F4H2NvbS5hbnRocm9waWMub3JpZ2luLWNvbmZpZGVuY2VndW5rbm93bmtkZXNjcmlwdGlvbnhmQ2xhdWRlIHByb3ZpZGVkIHRoaXMgZmlsZSBhdCB0aGUgcmVxdWVzdCBvZiBhIHVzZXIgYW5kIG1heSBoYXZlIGNyZWF0ZWQgb3IgbW9kaWZpZWQgdGhlIGZpbGUgY29udGVudHMubXNvZnR3YXJlQWdlbnShZG5hbWVmQ2xhdWRlcmFsbEFjdGlvbnNJbmNsdWRlZPUAAADIanVtYgAAAEBqdW1kY2JvcgARABCAAACqADibcRNjMnBhLmhhc2guZGF0YQAAAAAYYzJzaBJYscaCw6WilkJNv3Su2DYAAACAY2JvcqVjYWxnZnNoYTI1NmNwYWRNAAAAAAAAAAAAAAAAAGRoYXNoWCBexkgCcQ9Xv1fiS8oUcbyWr6Tv4OUPhC3ZyqPXXpIZ1GRuYW1lbmp1bWJmIG1hbmlmZXN0amV4Y2x1c2lvbnOBomVzdGFydBiaZmxlbmd0aBkeBAAAAj5qdW1iAAAAJ2p1bWRjMmNsABEAEIAAAKoAOJtxA2MycGEuY2xhaW0udjIAAAACD2Nib3KlY2FsZ2ZzaGEyNTZpc2lnbmF0dXJleE1zZWxmI2p1bWJmPS9jMnBhL3VybjpjMnBhOjMzYmNmNzlhLWFjYTctNDMyNi05ZWI1LWIwYTgwZTkyNjk3OC9jMnBhLnNpZ25hdHVyZWppbnN0YW5jZUlEeCx4bXA6aWlkOmZiMTc1YWUwLTBhYTctNDhlNC04ZDFlLTE2MzczYzMzMTg4NXJjcmVhdGVkX2Fzc2VydGlvbnODomN1cmx4LXNlbGYjanVtYmY9YzJwYS5hc3NlcnRpb25zL2MycGEuaW5ncmVkaWVudC52M2RoYXNoWCDf1dXS5Dei7vpZKy4G3Jc8ILMnXOvVmyZBxQPcuqcDOqJjdXJseCpzZWxmI2p1bWJmPWMycGEuYXNzZXJ0aW9ucy9jMnBhLmFjdGlvbnMudjJkaGFzaFggKzCIQ4w4H/aAz0Emov6wSmZ1YVg47LVE2cSzqoHWWj2iY3VybHgpc2VsZiNqdW1iZj1jMnBhLmFzc2VydGlvbnMvYzJwYS5oYXNoLmRhdGFkaGFzaFggijVm5t40U0Y56WQHK3rjOUGuDLBJLoYZRl1eX4OfRsB0Y2xhaW1fZ2VuZXJhdG9yX2luZm+jZG5hbWVvQW50aHJvcGljIEZpbGVzZ3ZlcnNpb25lMS4wLjBrc3BlY1ZlcnNpb25lMi40LjAAABA4anVtYgAAAChqdW1kYzJjcwARABCAAACqADibcQNjMnBhLnNpZ25hdHVyZQAAABAIY2JvctKEWQISogEmGCFZAgowggIGMIIBjaADAgECAhRA5aAK7sI50L64g/oGQgU9Z1UTADAKBggqhkjOPQQDAzBJMRcwFQYDVQQKEw5BbnRocm9waWMsIFBCQzEuMCwGA1UEAxMlQW50aHJvcGljIENvbnRlbnQgQ3JlZGVudGlhbHMgUm9vdCBDQTAeFw0yNjA4MDcxODQzNTZaFw0yODA4MDYxOTQzNTZaMEQxFzAVBgNVBAoTDkFudGhyb3BpYywgUEJDMSkwJwYDVQQDEyBBbnRocm9waWMgQ2xhdWRlIENvbnRlbnQgU2lnbmluZzBZMBMGByqGSM49AgEGCCqGSM49AwEHA0IABJh6CmvLUBgFFNU0vUKlOVtE6djd17L5SuwX0LemFisBM3dkd/3cyjxFA3Qo5S46fX0/ihY0VZ7mfb9KF703t5OjWDBWMA4GA1UdDwEB/wQEAwIHgDAVBgNVHSUEDjAMBgorBgEEAYPoXgIBMAwGA1UdEwEB/wQCMAAwHwYDVR0jBBgwFoAUzlHiBIFOZFsj+OPEz5o+nMHXXMIwCgYIKoZIzj0EAwMDZwAwZAIwMXMdFJ4BetLLVY7ORuE9noqbbAZOZn/aArXyTwFAZfKrPzxF2vPoJNf1+UCdg1XGAjBwX1zd9WGqYkqmL5SFqw1QySjr1zJfpJM9+1rdDwSPLMOPOjKuiXjoU/pUUeG9RwmhY3BhZFkNngAAAAAAAAAAAAAAAAAAAAAAAAAAAAAAAAAAAAAAAAAAAAAAAAAAAAAAAAAAAAAAAAAAAAAAAAAAAAAAAAAAAAAAAAAAAAAAAAAAAAAAAAAAAAAAAAAAAAAAAAAAAAAAAAAAAAAAAAAAAAAAAAAAAAAAAAAAAAAAAAAAAAAAAAAAAAAAAAAAAAAAAAAAAAAAAAAAAAAAAAAAAAAAAAAAAAAAAAAAAAAAAAAAAAAAAAAAAAAAAAAAAAAAAAAAAAAAAAAAAAAAAAAAAAAAAAAAAAAAAAAAAAAAAAAAAAAAAAAAAAAAAAAAAAAAAAAAAAAAAAAAAAAAAAAAAAAAAAAAAAAAAAAAAAAAAAAAAAAAAAAAAAAAAAAAAAAAAAAAAAAAAAAAAAAAAAAAAAAAAAAAAAAAAAAAAAAAAAAAAAAAAAAAAAAAAAAAAAAAAAAAAAAAAAAAAAAAAAAAAAAAAAAAAAAAAAAAAAAAAAAAAAAAAAAAAAAAAAAAAAAAAAAAAAAAAAAAAAAAAAAAAAAAAAAAAAAAAAAAAAAAAAAAAAAAAAAAAAAAAAAAAAAAAAAAAAAAAAAAAAAAAAAAAAAAAAAAAAAAAAAAAAAAAAAAAAAAAAAAAAAAAAAAAAAAAAAAAAAAAAAAAAAAAAAAAAAAAAAAAAAAAAAAAAAAAAAAAAAAAAAAAAAAAAAAAAAAAAAAAAAAAAAAAAAAAAAAAAAAAAAAAAAAAAAAAAAAAAAAAAAAAAAAAAAAAAAAAAAAAAAAAAAAAAAAAAAAAAAAAAAAAAAAAAAAAAAAAAAAAAAAAAAAAAAAAAAAAAAAAAAAAAAAAAAAAAAAAAAAAAAAAAAAAAAAAAAAAAAAAAAAAAAAAAAAAAAAAAAAAAAAAAAAAAAAAAAAAAAAAAAAAAAAAAAAAAAAAAAAAAAAAAAAAAAAAAAAAAAAAAAAAAAAAAAAAAAAAAAAAAAAAAAAAAAAAAAAAAAAAAAAAAAAAAAAAAAAAAAAAAAAAAAAAAAAAAAAAAAAAAAAAAAAAAAAAAAAAAAAAAAAAAAAAAAAAAAAAAAAAAAAAAAAAAAAAAAAAAAAAAAAAAAAAAAAAAAAAAAAAAAAAAAAAAAAAAAAAAAAAAAAAAAAAAAAAAAAAAAAAAAAAAAAAAAAAAAAAAAAAAAAAAAAAAAAAAAAAAAAAAAAAAAAAAAAAAAAAAAAAAAAAAAAAAAAAAAAAAAAAAAAAAAAAAAAAAAAAAAAAAAAAAAAAAAAAAAAAAAAAAAAAAAAAAAAAAAAAAAAAAAAAAAAAAAAAAAAAAAAAAAAAAAAAAAAAAAAAAAAAAAAAAAAAAAAAAAAAAAAAAAAAAAAAAAAAAAAAAAAAAAAAAAAAAAAAAAAAAAAAAAAAAAAAAAAAAAAAAAAAAAAAAAAAAAAAAAAAAAAAAAAAAAAAAAAAAAAAAAAAAAAAAAAAAAAAAAAAAAAAAAAAAAAAAAAAAAAAAAAAAAAAAAAAAAAAAAAAAAAAAAAAAAAAAAAAAAAAAAAAAAAAAAAAAAAAAAAAAAAAAAAAAAAAAAAAAAAAAAAAAAAAAAAAAAAAAAAAAAAAAAAAAAAAAAAAAAAAAAAAAAAAAAAAAAAAAAAAAAAAAAAAAAAAAAAAAAAAAAAAAAAAAAAAAAAAAAAAAAAAAAAAAAAAAAAAAAAAAAAAAAAAAAAAAAAAAAAAAAAAAAAAAAAAAAAAAAAAAAAAAAAAAAAAAAAAAAAAAAAAAAAAAAAAAAAAAAAAAAAAAAAAAAAAAAAAAAAAAAAAAAAAAAAAAAAAAAAAAAAAAAAAAAAAAAAAAAAAAAAAAAAAAAAAAAAAAAAAAAAAAAAAAAAAAAAAAAAAAAAAAAAAAAAAAAAAAAAAAAAAAAAAAAAAAAAAAAAAAAAAAAAAAAAAAAAAAAAAAAAAAAAAAAAAAAAAAAAAAAAAAAAAAAAAAAAAAAAAAAAAAAAAAAAAAAAAAAAAAAAAAAAAAAAAAAAAAAAAAAAAAAAAAAAAAAAAAAAAAAAAAAAAAAAAAAAAAAAAAAAAAAAAAAAAAAAAAAAAAAAAAAAAAAAAAAAAAAAAAAAAAAAAAAAAAAAAAAAAAAAAAAAAAAAAAAAAAAAAAAAAAAAAAAAAAAAAAAAAAAAAAAAAAAAAAAAAAAAAAAAAAAAAAAAAAAAAAAAAAAAAAAAAAAAAAAAAAAAAAAAAAAAAAAAAAAAAAAAAAAAAAAAAAAAAAAAAAAAAAAAAAAAAAAAAAAAAAAAAAAAAAAAAAAAAAAAAAAAAAAAAAAAAAAAAAAAAAAAAAAAAAAAAAAAAAAAAAAAAAAAAAAAAAAAAAAAAAAAAAAAAAAAAAAAAAAAAAAAAAAAAAAAAAAAAAAAAAAAAAAAAAAAAAAAAAAAAAAAAAAAAAAAAAAAAAAAAAAAAAAAAAAAAAAAAAAAAAAAAAAAAAAAAAAAAAAAAAAAAAAAAAAAAAAAAAAAAAAAAAAAAAAAAAAAAAAAAAAAAAAAAAAAAAAAAAAAAAAAAAAAAAAAAAAAAAAAAAAAAAAAAAAAAAAAAAAAAAAAAAAAAAAAAAAAAAAAAAAAAAAAAAAAAAAAAAAAAAAAAAAAAAAAAAAAAAAAAAAAAAAAAAAAAAAAAAAAAAAAAAAAAAAAAAAAAAAAAAAAAAAAAAAAAAAAAAAAAAAAAAAAAAAAAAAAAAAAAAAAAAAAAAAAAAAAAAAAAAAAAAAAAAAAAAAAAAAAAAAAAAAAAAAAAAAAAAAAAAAAAAAAAAAAAAAAAAAAAAAAAAAAAAAAAAAAAAAAAAAAAAAAAAAAAAAAAAAAAAAAAAAAAAAAAAAAAAAAAAAAAAAAAAAAAAAAAAAAAAAAAAAAAAAAAAAAAAAAAAAAAAAAAAAAAAAAAAAAAAAAAAAAAAAAAAAAAAAAAAAAAAAAAAAAAAAAAAAAAAAAAAAAAAAAAAAAAAAAAAAAAAAAAAAAAAAAAAAAAAAAAAAAAAAAAAAAAAAAAAAAAAAAAAAAAAAAAAAAAAAAAAAAAAAAAAAAAAAAAAAAAAAAAAAAAAAAAAAAAAAAAAAAAAAAAAAAAAAAAAAAAAAAAAAAAAAAAAAAAAAAAAAAAAAAAAAAAAAAAAAAAAAAAAAAAAAAAAAAAAAAAAAAAAAAAAAAAAAAAAAAAAAAAAAAAAAAAAAAAAAAAAAAAAAAAAAAAAAAAAAAAAAAAAAAAAAAAAAAAAAAAAAAAAAAAAAAAAAAAAAAAAAAAAAAAAAAAAAAAAAAAAAAAAAAAAAAAAAAAAAAAAAAAAAAAAAAAAAAAAAAAAAAAAAAAAAAAAAAAAAAAAAAAAAAAAAAAAAAAAAAAAAAAAAAAAAAAAAAAAAAAAAAAAAAAAAAAAAAAAAAAAAAAAAAAAAAAAAAAAAAAAAAAAAAAAAAAAAAAAAAAAAAAAAAAAAAAAAAAAAAAAAAAAAAAAAAAAAAAAAAAAAAAAAAAAAAAAAAAAAAAAAAAAAAAAAAAAAAAAAAAAAAAAAAAAAAAAAAAAAAAAAAAAAAAAAAAAAAAAAAAAAAAAAAAAAAAAAAAAAAAAAAAAAAAAAAAAAAAAAAAAAAAAAAAAAAAAAAAAAAAAAAAAAAAAAAAAAAAAAAAAAAAAAAAAAAAAAAAAAAAAAAAAAAAAAAAAAAAAAAAAAAAAAAAAAAAAAAAAAAAAAAAAAAAAAAAAAAAAAAAAAAAAAAAAAAAAAAAAAAAAAAAAAAAAAAAAAAAAAAAAAAAAAAAAAAAAAAAAAAAAAAAAAAAAAAAAAAAAAAAAAAAAAAAAAAAAAAAAAAAAAAAAAAAAAAAAAAAAAAAAAAAAAAAAAAAAAAAAAAAAAAAAAAAAAAAAAAAAAAAAAAAAAAAAAAAAAAAAAAAAAAAAAAAAAAAAAAAAAAAAAAAAAAAAAAAAAAAAAAAAAAAAAAAAAAAAAAAAAAAAAAAAAAAAAAAAAAAAAAAAAAAAAAAAAAAAAAAAAAAAAAAAAAAAAAAAAAAAAAAAAAAAAAAAAAAAAAAAAAAAAAAAAAAAAAAAAAAAAAAAAAAAAAAAAAAAAAAAAAAAAAAAAAAAAAAAAAAAAAAAAAAAAAAAAAAAAAAAAAAAAAAAAAAAAAAAAAAAAAAAAAAAAAAAAAAAAAAAAAAAAAAAAAAAAAAAAAAAAAAAAAAAAAAAAAAAAAAAAAAAAAAAAAAAAAAAAAAAAAAAAAAAAAAAAAAAAAAAAAAAAAAAAAAAAAAAAAAAAAAAAAAAAAAAAAAAAAAAAAAAAAAAAAAAAAAAAAAAAAAAAAAAAAAAAAAAAAAAAAAAAAAAAAAAAAAAAAAAAAAAAAAAAAAAAAAAAAAAAAAAAAAAAAAAAAAAAAAAAAAAAAAAAAAAAAAAAAAAAAAAAAAAAAAAAAAAAAAAAAAAAAAAAAAAAAAAAAAAAAAAAAAAAAAAAAAAAAAAAAAAAAAAAAAAAAAAAAAAAAAAAAAAAAAAAAAAAAAAAAAAAAAAAAAAAAAAAAAAAAAAAAAAAAAAAAAAAAAAAAAAAAAAAAAAAAAAAAAAAAAAAAAAAAAAAAAAAAAAAAAAAAAAAAAAAAAAAAAAAAAAAAAAAAAAAAAAAAAAAAAAAAAAAAAAAAAAAAAAAAAAAAAAAAAAAAAAAAAAAAAAAAAAAAAAAAAPZYQCr9nK5cbB0txFz+zQ5l+1bt/PuNpVSX1V8046UAKxuREkClzjcM3tewzrlnXnB3Ifin4+RBpaUSeI8qJYA/Ve8=</c2pa:manifest></metadata><g id="background"><rect width="3600" height="2400" fill="#efe8d8"/></g><g id="topo"><g id="roads"><line x1="67" y1="0" x2="59" y2="2400" stroke="#d6c9ad" stroke-width="6"/><line x1="0" y1="44" x2="3600" y2="35" stroke="#d6c9ad" stroke-width="6"/><line x1="200" y1="0" x2="203" y2="2400" stroke="#d6c9ad" stroke-width="6"/><line x1="0" y1="133" x2="3600" y2="150" stroke="#d6c9ad" stroke-width="6"/><line x1="333" y1="0" x2="322" y2="2400" stroke="#d6c9ad" stroke-width="6"/><line x1="0" y1="222" x2="3600" y2="218" stroke="#d6c9ad" stroke-width="6"/><line x1="467" y1="0" x2="464" y2="2400" stroke="#d6c9ad" stroke-width="6"/><line x1="0" y1="311" x2="3600" y2="293" stroke="#d6c9ad" stroke-width="6"/><line x1="600" y1="0" x2="616" y2="2400" stroke="#d6c9ad" stroke-width="6"/><line x1="0" y1="400" x2="3600" y2="386" stroke="#d6c9ad" stroke-width="6"/><line x1="733" y1="0" x2="737" y2="2400" stroke="#d6c9ad" stroke-width="6"/><line x1="0" y1="489" x2="3600" y2="487" stroke="#d6c9ad" stroke-width="6"/><line x1="867" y1="0" x2="874" y2="2400" stroke="#d6c9ad" stroke-width="6"/><line x1="0" y1="578" x2="3600" y2="580" stroke="#d6c9ad" stroke-width="6"/><line x1="1000" y1="0" x2="1012" y2="2400" stroke="#d6c9ad" stroke-width="6"/><line x1="0" y1="667" x2="3600" y2="674" stroke="#d6c9ad" stroke-width="6"/><line x1="1133" y1="0" x2="1151" y2="2400" stroke="#d6c9ad" stroke-width="6"/><line x1="0" y1="756" x2="3600" y2="739" stroke="#d6c9ad" stroke-width="6"/><line x1="1267" y1="0" x2="1265" y2="2400" stroke="#d6c9ad" stroke-width="6"/><line x1="0" y1="844" x2="3600" y2="832" stroke="#d6c9ad" stroke-width="6"/><line x1="1400" y1="0" x2="1416" y2="2400" stroke="#d6c9ad" stroke-width="6"/><line x1="0" y1="933" x2="3600" y2="917" stroke="#d6c9ad" stroke-width="6"/><line x1="1533" y1="0" x2="1518" y2="2400" stroke="#d6c9ad" stroke-width="6"/><line x1="0" y1="1022" x2="3600" y2="1027" stroke="#d6c9ad" stroke-width="6"/><line x1="1667" y1="0" x2="1677" y2="2400" stroke="#d6c9ad" stroke-width="6"/><line x1="0" y1="1111" x2="3600" y2="1121" stroke="#d6c9ad" stroke-width="6"/><line x1="1800" y1="0" x2="1803" y2="2400" stroke="#d6c9ad" stroke-width="6"/><line x1="0" y1="1200" x2="3600" y2="1189" stroke="#d6c9ad" stroke-width="6"/><line x1="1933" y1="0" x2="1939" y2="2400" stroke="#d6c9ad" stroke-width="6"/><line x1="0" y1="1289" x2="3600" y2="1303" stroke="#d6c9ad" stroke-width="6"/><line x1="2067" y1="0" x2="2077" y2="2400" stroke="#d6c9ad" stroke-width="6"/><line x1="0" y1="1378" x2="3600" y2="1387" stroke="#d6c9ad" stroke-width="6"/><line x1="2200" y1="0" x2="2201" y2="2400" stroke="#d6c9ad" stroke-width="6"/><line x1="0" y1="1467" x2="3600" y2="1454" stroke="#d6c9ad" stroke-width="6"/><line x1="2333" y1="0" x2="2333" y2="2400" stroke="#d6c9ad" stroke-width="6"/><line x1="0" y1="1556" x2="3600" y2="1573" stroke="#d6c9ad" stroke-width="6"/><line x1="2467" y1="0" x2="2461" y2="2400" stroke="#d6c9ad" stroke-width="6"/><line x1="0" y1="1644" x2="3600" y2="1651" stroke="#d6c9ad" stroke-width="6"/><line x1="2600" y1="0" x2="2589" y2="2400" stroke="#d6c9ad" stroke-width="6"/><line x1="0" y1="1733" x2="3600" y2="1733" stroke="#d6c9ad" stroke-width="6"/><line x1="2733" y1="0" x2="2718" y2="2400" stroke="#d6c9ad" stroke-width="6"/><line x1="0" y1="1822" x2="3600" y2="1821" stroke="#d6c9ad" stroke-width="6"/><line x1="2867" y1="0" x2="2852" y2="2400" stroke="#d6c9ad" stroke-width="6"/><line x1="0" y1="1911" x2="3600" y2="1915" stroke="#d6c9ad" stroke-width="6"/><line x1="3000" y1="0" x2="2997" y2="2400" stroke="#d6c9ad" stroke-width="6"/><line x1="0" y1="2000" x2="3600" y2="2001" stroke="#d6c9ad" stroke-width="6"/><line x1="3133" y1="0" x2="3149" y2="2400" stroke="#d6c9ad" stroke-width="6"/><line x1="0" y1="2089" x2="3600" y2="2079" stroke="#d6c9ad" stroke-width="6"/><line x1="3267" y1="0" x2="3282" y2="2400" stroke="#d6c9ad" stroke-width="6"/><line x1="0" y1="2178" x2="3600" y2="2165" stroke="#d6c9ad" stroke-width="6"/><line x1="3400" y1="0" x2="3417" y2="2400" stroke="#d6c9ad" stroke-width="6"/><line x1="0" y1="2267" x2="3600" y2="2257" stroke="#d6c9ad" stroke-width="6"/><line x1="3533" y1="0" x2="3539" y2="2400" stroke="#d6c9ad" stroke-width="6"/><line x1="0" y1="2356" x2="3600" y2="2339" stroke="#d6c9ad" stroke-width="6"/><line x1="360" y1="0" x2="390" y2="2400" stroke="#dccfb0" stroke-width="19"/><line x1="1080" y1="0" x2="1110" y2="2400" stroke="#dccfb0" stroke-width="19"/><line x1="1800" y1="0" x2="1830" y2="2400" stroke="#dccfb0" stroke-width="19"/><line x1="2520" y1="0" x2="2550" y2="2400" stroke="#dccfb0" stroke-width="19"/><line x1="3240" y1="0" x2="3270" y2="2400" stroke="#dccfb0" stroke-width="19"/></g><g id="water"><path d="M1745.4 138.9 C1674.0 353.7 1674.0 353.7 1624.6 574.6 C1745.8 732.6 1745.8 732.6 1907.0 849.6 C1767.9 1008.3 1767.9 1008.3 1633.0 1170.7 C1585.7 1345.5 1585.7 1345.5 1573.6 1526.2 C1758.9 1732.0 1758.9 1732.0 1978.7 1900.5 C1827.0 2020.8 1827.0 2020.8 1687.0 2154.6" fill="none" stroke="#a9c4d4" stroke-width="22" opacity=".55"/></g></g><path id="route" d="M1800.6 192.0 C1683.3 363.2 1683.3 363.2 1557.1 528.0 C1745.9 697.2 1745.9 697.2 1936.7 864.0 C1787.2 1022.5 1787.2 1022.5 1660.7 1200.0 C1570.9 1360.6 1570.9 1360.6 1515.2 1536.0 C1758.7 1708.0 1758.7 1708.0 2007.8 1872.0 C1886.5 2049.7 1886.5 2049.7 1740.7 2208.0" fill="none" stroke="none"/><g id="heights"><circle id="h-1" cx="1769.6" cy="234.8" r="4" fill="#6f6a5e" opacity=".5"/><circle id="h-2" cx="1707.6" cy="320.4" r="4" fill="#6f6a5e" opacity=".5"/><circle id="h-3" cx="1645.5" cy="406.0" r="4" fill="#6f6a5e" opacity=".5"/><circle id="h-4" cx="1583.5" cy="491.6" r="4" fill="#6f6a5e" opacity=".5"/><circle id="h-5" cx="1602.5" cy="568.2" r="4" fill="#6f6a5e" opacity=".5"/><circle id="h-6" cx="1681.7" cy="638.3" r="4" fill="#6f6a5e" opacity=".5"/><circle id="h-7" cx="1760.9" cy="708.3" r="4" fill="#6f6a5e" opacity=".5"/><circle id="h-8" cx="1840.0" cy="778.4" r="4" fill="#6f6a5e" opacity=".5"/><circle id="h-9" cx="1919.2" cy="848.5" r="4" fill="#6f6a5e" opacity=".5"/><circle id="h-10" cx="1884.5" cy="927.6" r="4" fill="#6f6a5e" opacity=".5"/><circle id="h-11" cx="1817.4" cy="1009.2" r="4" fill="#6f6a5e" opacity=".5"/><circle id="h-12" cx="1750.3" cy="1090.9" r="4" fill="#6f6a5e" opacity=".5"/><circle id="h-13" cx="1683.2" cy="1172.6" r="4" fill="#6f6a5e" opacity=".5"/><circle id="h-14" cx="1632.8" cy="1264.4" r="4" fill="#6f6a5e" opacity=".5"/><circle id="h-15" cx="1590.8" cy="1361.5" r="4" fill="#6f6a5e" opacity=".5"/><circle id="h-16" cx="1548.8" cy="1458.5" r="4" fill="#6f6a5e" opacity=".5"/><circle id="h-17" cx="1532.7" cy="1547.9" r="4" fill="#6f6a5e" opacity=".5"/><circle id="h-18" cx="1620.0" cy="1607.5" r="4" fill="#6f6a5e" opacity=".5"/><circle id="h-19" cx="1707.4" cy="1667.1" r="4" fill="#6f6a5e" opacity=".5"/><circle id="h-20" cx="1794.7" cy="1726.7" r="4" fill="#6f6a5e" opacity=".5"/><circle id="h-21" cx="1882.0" cy="1786.2" r="4" fill="#6f6a5e" opacity=".5"/><circle id="h-22" cx="1969.3" cy="1845.8" r="4" fill="#6f6a5e" opacity=".5"/><circle id="h-23" cx="1970.9" cy="1918.4" r="4" fill="#6f6a5e" opacity=".5"/><circle id="h-24" cx="1905.1" cy="2001.1" r="4" fill="#6f6a5e" opacity=".5"/><circle id="h-25" cx="1839.4" cy="2083.9" r="4" fill="#6f6a5e" opacity=".5"/><circle id="h-26" cx="1773.6" cy="2166.6" r="4" fill="#6f6a5e" opacity=".5"/></g><g id="waypoints"><circle id="wp-1" cx="1639.3" cy="414.5" r="9" fill="#fff" stroke="#4ecf4e" stroke-width="5"/><circle id="wp-2" cx="1863.8" cy="799.4" r="9" fill="#fff" stroke="#4ecf4e" stroke-width="5"/><circle id="wp-3" cx="1653.8" cy="1215.9" r="9" fill="#fff" stroke="#4ecf4e" stroke-width="5"/><circle id="wp-4" cx="1681.2" cy="1649.2" r="9" fill="#fff" stroke="#e84fff" stroke-width="5"/><circle id="wp-5" cx="1911.7" cy="1992.8" r="9" fill="#fff" stroke="#4ecf4e" stroke-width="5"/></g><g id="crossings"><line x1="1760.9" y1="708.3" x2="1890.9" y2="768.3" stroke="#3b6ea8" stroke-width="4" opacity=".45"/><circle id="link-1" cx="1890.9" cy="768.3" r="8" fill="#fff" stroke="#3b6ea8" stroke-width="5"/><line x1="1653.8" y1="1215.9" x2="1523.8" y2="1275.9" stroke="#3b6ea8" stroke-width="4" opacity=".45"/><circle id="link-2" cx="1523.8" cy="1275.9" r="8" fill="#fff" stroke="#3b6ea8" stroke-width="5"/><line x1="1794.7" y1="1726.7" x2="1924.7" y2="1786.7" stroke="#8c3aba" stroke-width="4" opacity=".45"/><circle id="link-3" cx="1924.7" cy="1786.7" r="8" fill="#fff" stroke="#8c3aba" stroke-width="5"/></g><g id="labels"><text x="504" y="432" font-family="Georgia,serif" font-size="58" fill="#7a6a4c" opacity=".55">West Don</text></g></svg>